<?xml version="1.0" encoding="utf-8"?>
<!-- Generator: Adobe Illustrator 19.0.0, SVG Export Plug-In . SVG Version: 6.00 Build 0)  -->
<svg version="1.1" id="layer" xmlns="http://www.w3.org/2000/svg" xmlns:xlink="http://www.w3.org/1999/xlink" x="0px" y="0px"
	 viewBox="-153 -46 652 652" style="enable-background:new -153 -46 652 652;" xml:space="preserve">
<path d="M270.1,29.7c4.8,4.8,4.8,12.6,0,17.4l-169.9,170c-2.9,2.9-6.8,4.5-10.9,4.5c-4.2,0-8-1.6-10.9-4.5l-47.8-47.7
	c-1.8-1.8-4.8-1.8-6.6,0l-161.9,161.9c-2.3,2.3-5.4,3.6-8.7,3.6c-3.3,0-6.4-1.3-8.7-3.6c-4.8-4.8-4.8-12.6,0-17.4L16.3,142.2
	c2.9-2.9,6.8-4.5,10.9-4.5c4.1,0,8,1.6,10.9,4.5l47.8,47.7c1.8,1.8,4.8,1.8,6.6,0L252.6,29.7c2.3-2.3,5.4-3.6,8.7-3.6
	C264.7,26.1,267.8,27.4,270.1,29.7 M480.8,350.1c-3,5.7-4.2,6.9-6.9,6.9c-0.6,0-1.8-0.3-2.7-0.6c-9.5-3.3-14.6-4.2-20.5-4.2
	c-8.9,0-14.9,3.9-14.9,9.5c0,5.9,3.6,7.7,21.4,11.3c26.5,5.3,39.2,18.4,39.2,40.1c0,30.6-25.3,50.6-63.9,50.6
	c-15.8,0-33.3-4.2-46.1-11.3c-4.5-2.4-5.9-3.9-5.9-6.5c0-1.5,0.3-2.4,2.4-6.5l8-15.5c3-5.7,4.2-6.8,7.1-6.8c1.5,0,1.5,0,10.1,4.8
	c6.8,3.6,18.7,6.5,26.2,6.5c8,0,14.3-4.5,14.3-10.7c0-6.2-3.9-8.6-20.2-12.2c-28.5-5.9-39.5-16.4-39.5-37.5
	c0-30,22.9-48.8,59.8-48.8c13.7,0,29.1,2.7,37.5,6.3c2.1,0.9,3.9,3.3,3.9,5c0,1.2-0.9,3.9-2.4,6.8L480.8,350.1z M292.6,360.5
	c-17.2,0-30.9,13.7-30.9,30.6c0,17,14,30.9,30.9,30.9c17,0,30.6-13.7,30.6-31.2C323.2,374.2,309.3,360.5,292.6,360.5 M263.2,338.8
	c10.4-13.4,23.5-19.3,41.6-19.3c38.4,0,68.1,31.5,68.1,72.2c0,40.1-29.4,71.4-67.8,71.4c-17.2,0-30-5.3-41.9-17.5v70.8
	c0,8.9-0.9,9.8-9.8,9.8h-27.9c-8.9,0-9.8-0.9-9.8-9.8V333.7c0-8.9,0.9-9.8,9.8-9.8h27.9c8.9,0,9.8,0.9,9.8,9.8V338.8z M193.6,448.8
	c0,8.9-0.9,9.8-9.8,9.8h-27.9c-8.9,0-9.8-0.9-9.8-9.8V250.5c0-8.9,0.9-9.8,9.8-9.8h27.9c8.9,0,9.8,0.9,9.8,9.8V448.8z M28.9,321.5
	L7.2,384.9H50L28.9,321.5z M-7.1,424.1l-10.7,27.1c-3,7.4-3,7.4-11,7.4h-33.9c-7.4,0-9.8-1.5-9.8-5.7c0-1.5,0-1.8,1.8-6.2l68.7-179
	l0.9-2.4c1.8-4.8,2.7-5.1,10.1-5.1h40.1c8,0,8,0,10.7,7.4l67.5,179c1.5,3.9,1.8,4.8,1.8,6.5c0,3.9-2.4,5.3-9.8,5.3H84.8
	c-7.4,0-8.3-0.6-9.8-5.1l-0.9-2.7L64,424.1H-7.1z"/>
</svg>
